<svg width="22" height="19" viewBox="0 0 22 19" fill="none" xmlns="http://www.w3.org/2000/svg">
<path d="M18.8162 0.139139C20.8746 2.76546 22 6.07988 22 9.5C22 12.9201 20.8746 16.2345 18.8162 18.8609C18.6936 19.0173 18.4655 19.0462 18.3068 18.9253C18.148 18.8045 18.1187 18.5797 18.2414 18.4233C20.1981 15.9267 21.2737 12.7674 21.2737 9.5C21.2737 6.23259 20.1981 3.07331 18.2414 0.576706C18.1187 0.420272 18.148 0.195504 18.3068 0.0746737C18.4655 -0.0461571 18.6936 -0.0172951 18.8162 0.139139Z" fill="white"/>
<path d="M15.1103 3.33475C16.4265 5.07572 17.1473 7.25172 17.1473 9.49919C17.1473 11.7467 16.4265 13.9227 15.1103 15.6636C14.9905 15.8222 15.0237 16.0464 15.1846 16.1645C15.3454 16.2826 15.5729 16.2498 15.6928 16.0913C17.1055 14.2226 17.8736 11.8955 17.8736 9.49919C17.8736 7.10286 17.1055 4.77577 15.6928 2.90709C15.5729 2.74858 15.3454 2.71582 15.1846 2.83391C15.0237 2.95201 14.9905 3.17624 15.1103 3.33475Z" fill="white"/>
<path fill-rule="evenodd" clip-rule="evenodd" d="M8.46917 3.31577C8.62577 3.57693 8.70767 3.87817 8.70768 4.18391V14.8142C8.70767 15.12 8.62577 15.4212 8.46917 15.6823C8.31245 15.9437 8.08619 16.1558 7.81385 16.2893C7.54108 16.423 7.23589 16.4709 6.93571 16.4252C6.63576 16.3795 6.35818 16.2431 6.13484 16.0367L4.55157 14.5738C4.45988 14.4892 4.37866 14.394 4.30915 14.2906L1.61802 14.2906C1.17873 14.2906 0.76418 14.1035 0.463508 13.7816C0.163764 13.4607 -1.96091e-08 13.0314 0 12.5893L2.74083e-07 6.40993C2.93692e-07 5.96784 0.163765 5.53849 0.463508 5.21759C0.764181 4.89569 1.17873 4.7086 1.61802 4.7086H4.30829C4.37796 4.60476 4.45942 4.50917 4.55147 4.42414L6.13484 2.96143C6.35818 2.75508 6.63577 2.61862 6.93572 2.57293C7.23589 2.52721 7.54108 2.5751 7.81385 2.70881C8.08619 2.84231 8.31245 3.05442 8.46917 3.31577ZM4.02523 5.64692C4.02523 5.63732 4.02531 5.62772 4.02548 5.61812V5.42441L1.61802 5.42441C1.3917 5.42441 1.1679 5.52039 0.99791 5.70238C0.826995 5.88536 0.726344 6.13943 0.726344 6.40993L0.726344 12.5893C0.726344 12.8598 0.826994 13.1139 0.99791 13.2968C1.1679 13.4788 1.3917 13.5748 1.61802 13.5748L4.02548 13.5748V13.3801C4.02531 13.3705 4.02523 13.3608 4.02523 13.3512V5.64692ZM4.83079 13.7409C4.78172 13.6262 4.75464 13.5011 4.75182 13.3734L4.75182 5.62484C4.75464 5.49704 4.78173 5.37184 4.83082 5.25711C4.88271 5.13582 4.95748 5.03019 5.04822 4.94638L6.08237 3.99103L6.63164 3.48362C6.7523 3.37213 6.89674 3.30318 7.04666 3.28034C7.19637 3.25754 7.34999 3.2809 7.49037 3.34971C7.57723 3.39229 7.65764 3.45166 7.72735 3.52564C7.77066 3.57161 7.80983 3.62322 7.84385 3.67995C7.93273 3.82817 7.98133 4.00318 7.98134 4.18392L7.98133 14.8142C7.98133 14.9949 7.93273 15.1699 7.84385 15.3182C7.75508 15.4662 7.63119 15.5794 7.49037 15.6484C7.34999 15.7172 7.19636 15.7406 7.04666 15.7178C6.89674 15.6949 6.7523 15.626 6.63164 15.5145L5.04812 14.0514C4.9574 13.9676 4.88267 13.8621 4.83079 13.7409Z" fill="white"/>
<path d="M11.9694 6.09113C12.6506 7.0741 13.0205 8.26909 13.0205 9.49946C13.0205 10.7298 12.6506 11.9248 11.9694 12.9078C11.8563 13.071 11.8989 13.2937 12.0645 13.4052C12.2301 13.5167 12.4561 13.4747 12.5692 13.3115C13.3353 12.206 13.7468 10.8695 13.7468 9.49946C13.7468 8.12937 13.3353 6.79288 12.5692 5.68743C12.4561 5.5242 12.2301 5.48224 12.0645 5.59372C11.8989 5.7052 11.8563 5.9279 11.9694 6.09113Z" fill="white"/>
</svg>
